<svg width="172" height="35" viewBox="0 0 172 35" fill="none" xmlns="http://www.w3.org/2000/svg">
<g clip-path="url(#clip0_2635_1548)">
<path d="M30.7441 17.0762C30.748 17.0905 30.7528 17.1047 30.7583 17.1185C30.7591 17.1044 30.7591 17.0903 30.7583 17.0762H30.7441Z" fill="#4535c3"/>
<path d="M30.7441 17.0762C30.748 17.0905 30.7528 17.1047 30.7583 17.1185C30.7591 17.1044 30.7591 17.0903 30.7583 17.0762H30.7441Z" fill="#4535c3"/>
<path d="M37.0967 14.4945C37.0696 14.3336 37.0415 14.1751 37.0121 14.0189C36.223 9.90918 34.2557 6.64548 31.11 4.22779C27.3325 1.31811 22.7349 0.0552476 17.3171 0.439213C12.0332 0.81261 7.74028 2.70191 4.4384 6.10711C1.16236 9.49117 -0.300113 13.834 0.0509754 19.1355V19.2271C0.785443 24.5427 3.09276 28.4387 7.05924 31.0842C11.0257 33.7297 15.6897 34.6808 21.0758 33.9375C26.3245 33.2084 30.4812 31.0361 33.5459 27.4207C36.0927 24.4065 37.3256 20.8076 37.2446 16.6239L37.0967 14.4945ZM28.5701 28.245C27.567 29.6051 26.3112 30.7593 24.8714 31.6443C23.5621 32.4069 22.1209 32.916 20.6231 33.145C18.4508 33.4972 16.4271 33.3616 14.5519 32.7381C12.6767 32.1146 11.0134 30.7907 9.56206 28.7663C7.40445 25.7721 6.97469 22.7515 6.77038 20.7876C6.69993 20.1271 6.63124 19.4525 6.58192 18.7815C6.56959 18.6054 6.55726 18.4292 6.54669 18.239C6.51675 17.7582 6.51675 17.2808 6.52732 16.8176C6.52732 16.7454 6.52732 16.6714 6.52732 16.5992C5.49167 12.9005 7.1702 8.34397 9.44934 5.6157C10.5423 4.32603 11.8727 3.25815 13.3683 2.47C14.7261 1.79505 16.1991 1.38215 17.7099 1.25294C19.901 1.0451 21.9106 1.31634 23.7389 2.06666C25.5671 2.81698 27.14 4.2501 28.4574 6.36602C30.409 9.49762 30.6362 12.5412 30.7066 14.5138C30.7066 14.6371 30.7066 14.7604 30.7207 14.8855C30.7471 15.6111 30.7683 16.3474 30.7595 17.0713C30.7603 17.0853 30.7603 17.0994 30.7595 17.1135C32.0223 20.7383 30.6555 25.3829 28.5701 28.245Z" fill="#4535c3"/>
<path d="M30.76 17.0767H30.7442C30.7283 17.0291 30.7107 16.9833 30.6931 16.9375C30.6931 16.9851 30.6931 17.0326 30.6931 17.0802C30.6931 17.4924 30.6702 17.8992 30.635 18.2973C30.5099 19.7468 30.1577 21.0837 29.3298 22.1123C25.5589 26.7921 11.722 25.3654 7.43497 18.7217L6.58249 18.7816C6.57016 18.6055 6.55784 18.4294 6.54727 18.2391C6.51733 17.7583 6.51733 17.281 6.52789 16.8178C6.52789 16.7456 6.52789 16.6716 6.52789 16.5994C6.58602 15.215 6.88016 13.9275 7.60934 12.9006C11.1108 8.01474 24.997 8.65058 29.6574 15.0371L30.642 14.9015L30.7213 14.8909C30.7477 15.6166 30.7688 16.3528 30.76 17.0767Z" fill="#4535c3"/>
</g>
<path d="M55.5443 26.7405C53.083 26.7405 50.9324 26.185 49.0925 25.0738C47.2472 23.9583 45.7559 22.3427 44.7913 20.4142C43.7638 18.4189 43.25 16.0831 43.25 13.4068C43.25 10.7305 43.7757 8.38874 44.8271 6.38151C45.8213 4.43548 47.3429 2.80836 49.2179 1.68602C51.0949 0.564121 53.2635 0.0025702 55.7235 0.00137542C57.5504 -0.0257066 59.361 0.347441 61.0283 1.09461C62.5649 1.79259 63.9155 2.84243 64.9711 4.15921C66.0349 5.50124 66.7382 7.09285 67.0142 8.78301H63.2506C62.8309 7.17177 61.8528 5.76185 60.4907 4.80439C59.1286 3.84856 57.5037 3.37065 55.616 3.37065C53.8728 3.37065 52.3495 3.78286 51.0459 4.60725C49.7248 5.45291 48.6737 6.65948 48.0172 8.08407C47.3003 9.57874 46.9419 11.341 46.9419 13.371C46.9419 15.3782 47.3003 17.1345 48.0172 18.6399C48.673 20.0752 49.7314 21.2892 51.0639 22.1347C52.4316 22.974 54.0115 23.4032 55.616 23.3713C57.5276 23.3713 59.1824 22.8993 60.5803 21.9555C61.9436 21.0594 62.9415 19.7055 63.394 18.1381H67.1217C66.7907 19.8021 66.0448 21.3556 64.9532 22.6544C63.8519 23.9554 62.466 24.9856 60.9029 25.6652C59.2126 26.3979 57.3864 26.7643 55.5443 26.7405Z" fill="#4535c3"/>
<path d="M67.7712 17.562C67.7396 15.8966 68.1476 14.2522 68.9541 12.7948C69.7187 11.4329 70.8402 10.3052 72.1979 9.53305C73.6364 8.72791 75.2631 8.31969 76.9113 8.35023C78.6808 8.35023 80.2459 8.7445 81.6068 9.53305C82.9566 10.3095 84.0713 11.4365 84.8327 12.7948C85.6392 14.2522 86.0472 15.8966 86.0155 17.562C86.0155 19.3541 85.6213 20.9432 84.8327 22.3291C84.0718 23.6878 82.957 24.815 81.6068 25.5909C80.2448 26.3794 78.6796 26.7737 76.9113 26.7737C75.2631 26.8042 73.6364 26.396 72.1979 25.5909C70.8398 24.8193 69.7182 23.6915 68.9541 22.3291C68.1655 20.9444 67.7712 19.3553 67.7712 17.562ZM71.1764 17.562C71.1536 18.6812 71.4059 19.7889 71.9112 20.7879C72.3721 21.6892 73.0729 22.4458 73.9363 22.9743C74.8426 23.4912 75.868 23.763 76.9113 23.763C77.9547 23.763 78.98 23.4912 79.8863 22.9743C80.7498 22.4458 81.4506 21.6892 81.9115 20.7879C82.3952 19.7781 82.6463 18.6727 82.6463 17.553C82.6463 16.4333 82.3952 15.3279 81.9115 14.3181C81.4311 13.4084 80.7116 12.6469 79.8305 12.1157C78.9495 11.5845 77.9401 11.3038 76.9113 11.3038C75.8825 11.3038 74.8732 11.5845 73.9921 12.1157C73.111 12.6469 72.3915 13.4084 71.9112 14.3181C71.4019 15.3221 71.1494 16.4366 71.1764 17.562Z" fill="#4535c3"/>
<path d="M91.9248 26.3459L84.8672 8.82031H88.4515L92.2868 18.6056C92.5974 19.4192 92.8722 20.1898 93.1112 20.9175C93.3501 21.6451 93.5413 22.2723 93.6847 22.7992C93.8507 22.2018 94.0598 21.5447 94.3119 20.8278C94.564 20.111 94.8448 19.3702 95.1542 18.6056L99.0612 8.82031H102.574L95.2618 26.3477L91.9248 26.3459Z" fill="#4535c3"/>
<path d="M107.664 26.775C105.8 26.775 104.336 26.2852 103.273 25.3054C102.209 24.3257 101.678 23.0473 101.678 21.4702C101.678 19.8692 102.251 18.5848 103.398 17.6171C104.545 16.6493 106.146 16.0818 108.201 15.9145L113.721 15.4844V14.9826C113.721 14.004 113.542 13.2215 113.183 12.6348C112.845 12.0666 112.328 11.6257 111.714 11.3803C111.04 11.1197 110.322 10.9919 109.599 11.004C108.189 11.004 107.096 11.2967 106.319 11.8821C105.543 12.4676 105.155 13.2979 105.155 14.3732H102.215C102.191 13.2394 102.516 12.1256 103.147 11.1832C103.809 10.244 104.722 9.51094 105.782 9.06841C107.035 8.54358 108.384 8.28717 109.743 8.3157C111.056 8.28625 112.36 8.54949 113.56 9.08633C114.628 9.58242 115.517 10.3961 116.105 11.4161C116.714 12.4556 117.019 13.7639 117.019 15.341V26.3449H114.148L113.789 23.5151C113.336 24.5187 112.554 25.3132 111.441 25.8987C110.273 26.497 108.976 26.798 107.664 26.775ZM108.631 24.1585C110.234 24.1585 111.488 23.6746 112.395 22.7068C113.302 21.739 113.756 20.4308 113.757 18.782V17.85L109.277 18.2085C107.796 18.3518 106.727 18.6983 106.069 19.2479C105.753 19.501 105.5 19.8234 105.329 20.1901C105.158 20.5569 105.074 20.9581 105.083 21.3627C105.083 22.2946 105.399 22.9936 106.033 23.4595C106.666 23.9255 107.532 24.1585 108.631 24.1585Z" fill="#4535c3"/>
<path d="M119.742 34.1951V8.81983H122.789L123.04 11.974C123.569 10.8029 124.47 9.83908 125.603 9.23202C126.767 8.61553 128.067 8.30125 129.384 8.31802C131.057 8.31802 132.502 8.70632 133.721 9.48293C134.947 10.2688 135.923 11.3879 136.535 12.7088C137.192 14.0828 137.521 15.6659 137.521 17.4581C137.549 19.1084 137.225 20.7458 136.571 22.2611C135.987 23.6123 135.029 24.7687 133.811 25.5945C132.604 26.4058 131.128 26.812 129.384 26.8132C128.078 26.8375 126.786 26.5421 125.621 25.9529C124.549 25.4067 123.673 24.543 123.111 23.4798V34.1969L119.742 34.1951ZM123.147 17.5997C123.13 18.6931 123.357 19.7767 123.81 20.7718C124.217 21.6749 124.877 22.4406 125.71 22.9762C126.599 23.5199 127.626 23.7939 128.667 23.7647C129.706 23.7956 130.729 23.5147 131.606 22.9582C132.426 22.4119 133.077 21.6488 133.488 20.7539C133.943 19.7655 134.169 18.6875 134.151 17.5997C134.174 16.4883 133.947 15.386 133.488 14.3738C133.08 13.482 132.427 12.724 131.606 12.1873C130.725 11.6427 129.703 11.3685 128.667 11.3988C127.626 11.3703 126.599 11.6442 125.71 12.1873C124.881 12.7195 124.222 13.4783 123.81 14.3738C123.351 15.3865 123.124 16.4895 123.147 17.6014V17.5997Z" fill="#4535c3"/>
<path d="M144.435 26.7752C142.571 26.7752 141.108 26.2853 140.044 25.3056C138.981 24.3259 138.449 23.0474 138.449 21.4703C138.449 19.8693 139.023 18.5849 140.17 17.6172C141.317 16.6494 142.918 16.0819 144.973 15.9146L150.493 15.4845V14.9827C150.493 14.0042 150.313 13.2216 149.955 12.6349C149.616 12.0667 149.1 11.6258 148.485 11.3804C147.811 11.1199 147.093 10.9921 146.371 11.0041C144.961 11.0041 143.868 11.2968 143.091 11.8822C142.314 12.4677 141.926 13.2986 141.926 14.3751H138.987C138.962 13.2412 139.287 12.1271 139.919 11.1851C140.58 10.2459 141.493 9.51285 142.553 9.07032C143.806 8.54528 145.156 8.28886 146.514 8.3176C147.828 8.28857 149.132 8.55179 150.331 9.08824C151.399 9.58432 152.288 10.398 152.876 11.4181C153.486 12.4575 153.79 13.7658 153.79 15.3429V26.3468H150.923L150.564 23.5152C150.111 24.5188 149.329 25.3133 148.217 25.8988C147.047 26.4977 145.748 26.7987 144.435 26.7752ZM145.403 24.1586C147.003 24.1586 148.257 23.6747 149.166 22.7069C150.076 21.7392 150.53 20.4309 150.528 18.7821V17.8502L146.048 18.2086C144.567 18.352 143.497 18.6984 142.84 19.248C142.524 19.5011 142.271 19.8235 142.1 20.1903C141.929 20.557 141.845 20.9583 141.854 21.3628C141.854 22.2947 142.171 22.9937 142.804 23.4596C143.437 23.9256 144.305 24.1586 145.406 24.1586H145.403Z" fill="#4535c3"/>
<path d="M157.486 8.82031L163.651 25.8818L161.572 28.7492L153.934 8.82031H157.486ZM154.403 34.1974V31.4375H156.661C157.168 31.4423 157.673 31.3881 158.167 31.2762C158.636 31.16 159.068 30.9256 159.421 30.5952C159.804 30.2487 160.126 29.7051 160.389 28.9643L167.773 8.82031H171.25L162.97 30.2905C162.372 31.7959 161.62 32.8832 160.712 33.5522C159.804 34.2213 158.68 34.5558 157.342 34.5558C156.827 34.5576 156.312 34.5277 155.801 34.4662C155.329 34.4079 154.862 34.3174 154.403 34.1956V34.1974Z" fill="#4535c3"/>
<defs>
<clipPath id="clip0_2635_1548">
<rect width="37.25" height="33.8101" fill="white" transform="translate(0 0.373047)"/>
</clipPath>
</defs>
</svg>
